<svg>
<symbol>
<svg id='notebook' xmlns="http://www.w3.org/2000/svg" viewBox="0 0 1024 1024"><path fill="#E0E0E0" d="M276.972 349.777h166.894v41.979H276.972zm635.78 416.782-18.112 31.778c-22.658 39.825-59.863 39.825-82.522 0l-18.113-31.778c8.462-24.211 31.89-41.544 59.374-41.544s50.911 17.334 59.374 41.544z"/><path fill="#FF7415" d="M902.333 181.86h-97.908c-30.849 0-59.537 28.05-59.537 58.9v53.727h27.645v-53.728c0-15.427 16.464-31.255 31.892-31.255h97.908c15.428 0 23.784 15.828 23.784 31.255v53.728h28.668v-53.728c0-30.848-21.604-58.9-52.452-58.9zM226.802 482.881h265.186v27.645H226.802zm0 69.624h210.92v27.645h-210.92zm0 70.648h154.607v27.645H226.802z"/><path fill="#262626" d="M598.436 239.569c-6.39-32.02-32.885-57.709-66.754-57.709H195.998c-38.56 0-73.632 34.327-73.632 72.887v45.884h-17.283c-23.138 0-41.96 18.84-41.96 41.98s18.822 41.979 41.96 41.979h17.283v28.669h-17.283c-23.138 0-41.96 18.84-41.96 41.979s18.822 41.98 41.96 41.98h17.283v26.62h-17.283c-23.138 0-41.96 19.353-41.96 42.491s18.822 42.492 41.96 42.492h17.283v28.668h-17.283c-23.138 0-41.96 18.329-41.96 41.468s18.822 41.467 41.96 41.467h17.283v51.835c0 38.56 35.073 66.936 73.632 66.936h398.624c38.56 0 66.307-28.376 66.307-66.936V310.694c0-36.66-26.561-68.242-62.493-71.125zm-.988 201.333h36.86v41.98h-36.86v-41.98zm0 139.249h36.86v43.003h-36.86v-43.003zM105.083 356.944c-7.71 0-13.987-5.6-13.987-13.31s6.277-13.311 13.987-13.311h17.283v26.62h-17.283zm0 112.627c-7.71 0-13.987-6.623-13.987-14.334s6.277-14.335 13.987-14.335h17.283v28.67h-17.283zm0 110.58c-7.71 0-13.987-6.112-13.987-13.823s6.277-13.822 13.987-13.822h17.283v27.645h-17.283zm0 111.603c-7.71 0-13.987-5.087-13.987-12.798s6.277-12.799 13.987-12.799h17.283v25.597h-17.283zM503.708 811.55h-307.71c-23.139 0-45.988-16.153-45.988-39.29V666.156h21.502v-28.669H150.01v-84.982h21.502v-28.669H150.01v-82.935h21.502v-27.644H150.01v-82.935h21.502V300.63H150.01v-45.884c0-23.139 22.85-45.242 45.988-45.242h335.684c23.139 0 39.146 22.104 39.146 45.242v517.512c0 23.14-16.007 39.29-39.146 39.29h-27.974zm130.6-39.29c0 23.138-16.548 39.29-39.686 39.29h-7.128c8.823-7.167 9.954-23.54 9.954-39.29v-121.46h36.86v121.46zm0-219.753h-36.86v-41.98h36.86v41.98zm-36.86-139.248V269.365c21.502 3.345 36.86 20.577 36.86 41.329v102.565h-36.86z"/><path fill="#262626" d="M226.802 440.902h265.186V300.63H226.802v140.272zm28.669-110.58h209.896v82.936H255.471v-82.935zm699.313-51.193H744.888v421.84h3.871c-.098 6.144-3.871 4.997-3.871 6.853v7.144l53.255 90.266c13.577 23.821 33.454 36.94 54.338 36.94s38.564-13.119 52.142-36.94l50.161-90.266v-7.144c0-1.856 3.31-.71 3.212-6.853h-3.212V279.13zm-28.668 28.668v28.67H772.533v-28.67h153.583zM882.52 791.381c-8.271 14.506-18.891 22.818-29.142 22.818s-20.871-8.312-29.142-22.818L776.45 707.55c.15-41.462 34.605-75.158 76.928-75.158 42.322 0 76.777 33.697 76.927 75.158L882.52 791.38zm15.95-174.946V406.09h-26.62V606.5c0-1.362-14.502-2.083-21.685-2.083-30.409 0-56.13 12.897-77.632 33.34V365.135h29.692v193.514h26.621V365.135h97.27v272.62c-6.144-8.556-13.311-15.815-27.645-21.32z"/></svg>
</symbol>
</svg>